This is from Masterpiece Mystery.                                                           

           

                                                                                            

        

The intro,prologue,credits, and next time are in separate files. 

 										

												

	

Enjoy and please share.										

												

	

												

	

												

	

		

TTLTTLTTLTTLTTLTTLTTLTTLTTLTTLTTLTTLTTLTTLTTLTTLTTLTTLTTLTTLTTLTTLTTLTTLTTLTTLTTL		

												

												

												

											

Inspector_Lewis_Wild_Justice_720p.HDTV.x264_20110920_TTL.mkv
Format                           : Matroska
File size                        : 1.69 GiB
Duration                         : 1h 20mn
Overall bit rate                 : 3 022 Kbps
Writing application              : HandBrake 0.9.5
Writing library                  : libmkv 0.6.4.1

Video
ID                               : 1
Format                           : AVC
Format/Info                      : Advanced Video Codec
Format profile                   : Baseline@L3.1
Format settings, CABAC           : No
Format settings, ReFrames        : 2 frames
Muxing mode                      : Container profile=Unknown@3.1
Codec ID                         : V_MPEG4/ISO/AVC
Duration                         : 1h 20mn
Bit rate                         : 2 834 Kbps
Nominal bit rate                 : 2 888 Kbps
Width                            : 1 280 pixels
Height                           : 720 pixels
Display aspect ratio             : 16:9
Frame rate mode                  : Variable
Frame rate                       : 29.970 fps
Resolution                       : 8 bits
Colorimetry                      : 4:2:0
Scan type                        : Progressive
Bits/(Pixel*Frame)               : 0.103
Stream size                      : 1.58 GiB (94%)
Writing library                  : x264 core 112
Encoding settings                : cabac=0 / ref=2 / deblock=1:0:0 / analyse=0x1:0x111 / 

me=umh / subme=6 / psy=1 / psy_rd=1.00:0.00 / mixed_ref=1 / me_range=16 / chroma_me=1 / 

trellis=0 / 8x8dct=0 / cqm=0 / deadzone=21,11 / fast_pskip=1 / chroma_qp_offset=-2 / 

threads=3 / sliced_threads=0 / nr=0 / decimate=1 / interlaced=0 / constrained_intra=0 / 

bframes=0 / weightp=0 / keyint=300 / keyint_min=29 / scenecut=40 / intra_refresh=0 / 

rc_lookahead=40 / rc=2pass / mbtree=1 / bitrate=2888 / ratetol=1.0 / qcomp=0.60 / qpmin=3 / 

qpmax=51 / qpstep=4 / cplxblur=20.0 / qblur=0.5 / ip_ratio=1.40 / aq=1:1.00
Color primaries                  : BT.709-5, BT.1361, IEC 61966-2-4, SMPTE RP177
Transfer characteristics         : BT.709-5, BT.1361
Matrix coefficients              : BT.709-5, BT.1361, IEC 61966-2-4 709, SMPTE RP177

Audio
ID                               : 2
Format                           : AC-3
Format/Info                      : Audio Coding 3
Codec ID                         : A_AC3
Duration                         : 1h 20mn
Bit rate mode                    : Constant
Bit rate                         : 128 Kbps
Channel(s)                       : 2 channels
Channel positions                : L R
Sampling rate                    : 48.0 KHz
Stream size                      : 73.4 MiB (4%)

